<?xml version="1.0" encoding="UTF-8"?><svg id="Layer_2" xmlns="http://www.w3.org/2000/svg" viewBox="0 0 300.45 74.75"><defs><style>.cls-1{fill:#fff;}</style></defs><g id="Layer_1-2"><g><path class="cls-1" d="M222.93,59.78l2.74-8.58h1.56l2.74,8.58h-1.34l-.56-1.84h-3.33l-.56,1.84h-1.25Zm2.15-2.98h2.64l-1.08-3.51c-.03-.12-.06-.25-.09-.41-.04-.16-.08-.36-.12-.6h-.05c-.04,.25-.08,.46-.11,.61s-.07,.29-.1,.4l-1.09,3.51Z"/><path class="cls-1" d="M233.28,59.78v-8.58h4.98v1.14h-3.73v2.58h3.26v1.14h-3.26v3.73h-1.25Z"/><path class="cls-1" d="M239.58,52v-1.26h1.2v1.26h-1.2Zm.03,7.78v-6.58h1.18v6.58h-1.18Z"/><path class="cls-1" d="M242.41,59.78v-6.58h.92l.15,.78h.08c.17-.3,.4-.53,.67-.69,.28-.16,.59-.24,.94-.24,.49,0,.89,.15,1.2,.46s.46,.83,.46,1.57v4.7h-1.18v-4.51c0-.45-.08-.76-.25-.92-.17-.16-.39-.24-.66-.24-.31,0-.58,.15-.81,.45s-.35,.7-.35,1.2v4.03h-1.18Z"/><path class="cls-1" d="M249.37,62.06c-.49,0-.88-.15-1.16-.44s-.42-.67-.42-1.11c0-.32,.08-.6,.24-.84,.16-.25,.36-.42,.61-.53-.17-.11-.3-.25-.39-.42-.1-.18-.14-.36-.14-.56,0-.27,.09-.51,.27-.71,.18-.2,.4-.34,.67-.43-.24-.19-.43-.44-.57-.73s-.21-.63-.21-.99c0-.69,.2-1.24,.59-1.63,.39-.4,.94-.59,1.65-.59,.37,0,.7,.08,1,.23,.27-.17,.46-.35,.57-.56,.1-.21,.17-.4,.18-.59h1.01c0,.42-.1,.76-.29,1.04-.2,.28-.46,.47-.79,.57,.17,.18,.31,.4,.41,.66,.1,.26,.15,.55,.15,.88,0,.67-.2,1.21-.59,1.61-.39,.4-.93,.6-1.61,.6h-.68c-.16,0-.29,.05-.39,.15-.1,.1-.16,.23-.16,.39,0,.14,.05,.26,.16,.36,.11,.1,.23,.15,.38,.15h2c.46,0,.83,.15,1.11,.46,.28,.31,.42,.69,.42,1.14,0,.36-.08,.68-.24,.98s-.39,.52-.69,.69c-.3,.17-.65,.25-1.06,.25h-2.03Zm.31-.96h1.78c.21,0,.38-.07,.53-.21s.21-.31,.21-.51-.06-.38-.18-.51c-.12-.13-.3-.2-.53-.2h-1.8c-.23,0-.4,.07-.53,.21s-.19,.31-.19,.51,.06,.37,.19,.51,.3,.21,.53,.21Zm.81-4.53c.35,0,.62-.12,.79-.35,.18-.23,.27-.55,.27-.94,0-.42-.09-.74-.27-.96-.18-.22-.44-.33-.79-.33s-.6,.11-.78,.34-.27,.54-.27,.94,.09,.71,.27,.94,.44,.34,.78,.34Z"/><path class="cls-1" d="M256.56,59.93c-.83,0-1.45-.27-1.88-.81-.43-.54-.64-1.42-.64-2.63s.21-2.05,.63-2.61,1.04-.83,1.86-.83c.74,0,1.3,.25,1.67,.76,.37,.5,.56,1.32,.56,2.45v.56h-3.49c0,.71,.12,1.24,.33,1.58,.21,.35,.53,.52,.98,.52,.31,0,.56-.12,.74-.38s.28-.59,.28-1.03h1.16c0,.77-.2,1.36-.61,1.78-.41,.42-.94,.63-1.59,.63Zm-1.28-4.09h2.25c0-.58-.08-1.01-.25-1.32-.17-.3-.42-.46-.75-.46-.42,0-.72,.15-.91,.45-.19,.3-.3,.74-.34,1.33Z"/><path class="cls-1" d="M260.05,59.78v-6.58h.92l.15,.9h.08c.09-.26,.22-.5,.39-.72s.42-.33,.73-.33c.16,0,.33,.03,.53,.1v1.19h-.4c-.22,0-.42,.05-.61,.14-.19,.09-.34,.25-.45,.48-.11,.22-.17,.53-.17,.93v3.9h-1.18Z"/><path class="cls-1" d="M263.72,61.95v-8.74h.92l.15,.78h.06c.16-.3,.36-.53,.62-.69,.25-.16,.53-.24,.83-.24,.63,0,1.14,.28,1.51,.83,.37,.55,.56,1.42,.56,2.63,0,.79-.09,1.44-.26,1.95-.18,.51-.41,.88-.71,1.12-.3,.24-.64,.36-1.01,.36-.33,0-.61-.07-.87-.2-.25-.13-.44-.32-.56-.56h-.06v2.78h-1.18Zm2.3-3.06c.38,0,.67-.17,.85-.52,.18-.35,.28-.89,.28-1.63v-.47c0-.74-.09-1.29-.28-1.63-.18-.35-.47-.52-.85-.52s-.67,.18-.85,.54-.27,.9-.27,1.61v.46c0,.71,.09,1.25,.27,1.61,.18,.37,.47,.55,.85,.55Z"/><path class="cls-1" d="M270.98,59.93c-.16,0-.34-.02-.53-.07-.2-.05-.38-.13-.56-.27-.18-.13-.33-.32-.44-.56-.11-.24-.17-.56-.17-.95,0-.6,.14-1.06,.42-1.38,.28-.32,.68-.54,1.18-.67s1.07-.19,1.7-.19v-.79c0-.29-.06-.53-.18-.71-.12-.18-.37-.27-.74-.27s-.6,.1-.74,.3-.2,.41-.2,.62v.16h-1.16s-.01-.08-.01-.12v-.15c0-.58,.2-1.03,.6-1.35,.4-.32,.92-.48,1.55-.48,.7,0,1.22,.16,1.56,.49,.34,.33,.51,.79,.51,1.39v3.54c0,.16,.04,.27,.11,.34,.08,.07,.15,.1,.24,.1h.38v.83c-.07,.03-.16,.07-.28,.11-.12,.04-.27,.06-.46,.06-.28,0-.52-.08-.7-.22-.18-.15-.31-.35-.39-.6h-.06c-.17,.27-.38,.48-.65,.63s-.59,.23-.96,.23Zm.36-1.03c.22,0,.43-.06,.61-.18s.33-.3,.45-.54c.12-.24,.17-.52,.17-.84v-.53c-.4,0-.76,.03-1.07,.09-.31,.06-.56,.18-.74,.34-.18,.17-.27,.41-.27,.74s.07,.56,.22,.7c.15,.14,.36,.21,.63,.21Z"/><path class="cls-1" d="M275.51,52v-1.26h1.2v1.26h-1.2Zm.03,7.78v-6.58h1.18v6.58h-1.18Z"/><path class="cls-1" d="M278.34,59.78v-6.58h.92l.15,.78h.08c.17-.3,.4-.53,.67-.69,.28-.16,.59-.24,.94-.24,.49,0,.89,.15,1.2,.46s.46,.83,.46,1.57v4.7h-1.18v-4.51c0-.45-.08-.76-.25-.92-.17-.16-.39-.24-.66-.24-.31,0-.58,.15-.81,.45s-.35,.7-.35,1.2v4.03h-1.18Z"/><path class="cls-1" d="M285.59,59.92c-.33,0-.58-.08-.77-.24-.19-.16-.32-.36-.4-.6s-.12-.5-.12-.76v-4.09h-.6v-1.03h.6l.23-1.84h.95v1.84h.91v1.03h-.91v4.1c0,.38,.19,.58,.56,.58h.35v.84c-.09,.05-.21,.09-.37,.12-.15,.03-.3,.05-.43,.05Z"/><path class="cls-1" d="M226.86,72.62c-1.08,0-1.91-.37-2.49-1.09-.58-.73-.88-1.84-.88-3.34s.31-2.62,.93-3.35c.62-.73,1.48-1.09,2.57-1.09,.59,0,1.13,.12,1.61,.34,.48,.23,.86,.57,1.14,1.03,.28,.46,.42,1.03,.42,1.73h-1.29c0-.67-.18-1.17-.53-1.49s-.81-.48-1.36-.48c-.69,0-1.23,.25-1.61,.76-.38,.51-.57,1.25-.57,2.24v.63c0,.99,.18,1.74,.54,2.24,.36,.5,.89,.76,1.59,.76,.64,0,1.12-.2,1.44-.59,.32-.4,.48-.97,.48-1.73v-.64l.54,.5h-2.66v-1.09h3.41v4.53h-.81l-.25-.95c-.27,.38-.59,.65-.98,.83-.38,.18-.8,.27-1.26,.27Z"/><path class="cls-1" d="M231.71,72.47v-6.58h.92l.15,.9h.08c.09-.26,.22-.5,.39-.72s.42-.33,.73-.33c.16,0,.33,.03,.53,.1v1.19h-.4c-.22,0-.42,.05-.61,.14-.19,.09-.34,.25-.45,.48-.11,.22-.17,.53-.17,.93v3.9h-1.18Z"/><path class="cls-1" d="M237.59,72.62c-.8,0-1.41-.28-1.82-.83-.41-.55-.62-1.42-.62-2.61s.21-2.05,.62-2.61c.41-.55,1.02-.83,1.82-.83s1.41,.28,1.82,.83c.41,.55,.62,1.42,.62,2.61s-.21,2.05-.62,2.61c-.41,.55-1.02,.83-1.82,.83Zm0-1.03c.42,0,.72-.18,.92-.55,.2-.37,.29-.91,.29-1.63v-.47c0-.72-.1-1.26-.29-1.63-.2-.37-.5-.55-.92-.55s-.71,.18-.91,.55c-.2,.37-.29,.91-.29,1.63v.47c0,.72,.1,1.26,.29,1.63,.2,.37,.5,.55,.91,.55Z"/><path class="cls-1" d="M242.99,72.62c-.5,0-.91-.15-1.21-.46-.31-.3-.46-.83-.46-1.57v-4.7h1.18v4.51c0,.45,.08,.76,.25,.92,.17,.16,.39,.24,.66,.24,.32,0,.59-.15,.82-.44s.34-.69,.34-1.19v-4.04h1.18v6.58h-.93l-.15-.78h-.08c-.17,.3-.4,.53-.68,.69-.27,.16-.58,.24-.92,.24Z"/><path class="cls-1" d="M247.26,74.63v-8.74h.92l.15,.78h.06c.16-.3,.36-.53,.62-.69,.25-.16,.53-.24,.83-.24,.63,0,1.14,.28,1.51,.83,.37,.55,.56,1.42,.56,2.63,0,.79-.09,1.44-.26,1.95-.18,.51-.41,.88-.71,1.12-.3,.24-.64,.36-1.01,.36-.33,0-.61-.07-.87-.2-.25-.13-.44-.32-.56-.56h-.06v2.78h-1.18Zm2.3-3.06c.38,0,.67-.17,.85-.52,.18-.35,.28-.89,.28-1.63v-.47c0-.74-.09-1.29-.28-1.63-.18-.35-.47-.52-.85-.52s-.67,.18-.85,.54-.27,.9-.27,1.61v.46c0,.71,.09,1.25,.27,1.61,.18,.37,.47,.55,.85,.55Z"/><path class="cls-1" d="M259.26,72.62c-1.09,0-1.93-.37-2.51-1.1-.58-.73-.88-1.85-.88-3.34s.29-2.62,.88-3.35c.58-.73,1.42-1.09,2.51-1.09,.59,0,1.12,.12,1.58,.36,.46,.24,.82,.6,1.08,1.08s.39,1.1,.39,1.84h-1.29c0-.73-.16-1.27-.48-1.62-.32-.35-.75-.53-1.28-.53-.7,0-1.22,.25-1.56,.76s-.51,1.25-.51,2.24v.63c0,.98,.17,1.73,.52,2.24,.35,.51,.87,.76,1.58,.76,.54,0,.98-.18,1.3-.53s.49-.89,.49-1.61h1.24c0,.74-.13,1.36-.39,1.84s-.62,.84-1.08,1.08c-.46,.23-.98,.35-1.58,.35Z"/><path class="cls-1" d="M265.79,72.62c-.8,0-1.41-.28-1.82-.83-.41-.55-.62-1.42-.62-2.61s.21-2.05,.62-2.61c.41-.55,1.02-.83,1.82-.83s1.41,.28,1.82,.83c.41,.55,.62,1.42,.62,2.61s-.21,2.05-.62,2.61c-.41,.55-1.02,.83-1.82,.83Zm0-1.03c.42,0,.72-.18,.92-.55,.2-.37,.29-.91,.29-1.63v-.47c0-.72-.1-1.26-.29-1.63-.2-.37-.5-.55-.92-.55s-.71,.18-.91,.55c-.2,.37-.29,.91-.29,1.63v.47c0,.72,.1,1.26,.29,1.63,.2,.37,.5,.55,.91,.55Z"/><path class="cls-1" d="M269.52,72.47v-6.58h.92l.15,.78h.08c.17-.3,.38-.53,.64-.69s.55-.24,.88-.24,.61,.07,.86,.22c.25,.15,.43,.39,.56,.73,.17-.29,.4-.52,.69-.69s.6-.26,.94-.26c.31,0,.58,.07,.82,.19s.42,.34,.56,.64c.13,.3,.2,.69,.2,1.19v4.7h-1.18v-4.51c0-.45-.08-.76-.22-.92-.15-.16-.35-.24-.59-.24-.29,0-.54,.14-.75,.43-.21,.29-.31,.69-.31,1.19v4.05h-1.16v-4.51c0-.45-.08-.76-.22-.92-.15-.16-.35-.24-.6-.24-.29,0-.54,.15-.75,.44-.21,.3-.31,.7-.31,1.21v4.03h-1.18Z"/><path class="cls-1" d="M278.31,74.63v-8.74h.92l.15,.78h.06c.16-.3,.36-.53,.62-.69,.25-.16,.53-.24,.83-.24,.63,0,1.14,.28,1.51,.83,.37,.55,.56,1.42,.56,2.63,0,.79-.09,1.44-.26,1.95-.18,.51-.41,.88-.71,1.12-.3,.24-.64,.36-1.01,.36-.33,0-.61-.07-.87-.2-.25-.13-.44-.32-.56-.56h-.06v2.78h-1.18Zm2.3-3.06c.38,0,.67-.17,.85-.52,.18-.35,.28-.89,.28-1.63v-.47c0-.74-.09-1.29-.28-1.63-.18-.35-.47-.52-.85-.52s-.67,.18-.85,.54-.27,.9-.27,1.61v.46c0,.71,.09,1.25,.27,1.61,.18,.37,.47,.55,.85,.55Z"/><path class="cls-1" d="M285.58,72.62c-.16,0-.34-.02-.53-.07-.2-.05-.38-.13-.56-.27-.18-.13-.33-.32-.44-.56-.11-.24-.17-.56-.17-.95,0-.6,.14-1.06,.42-1.38,.28-.32,.68-.54,1.18-.67s1.07-.19,1.7-.19v-.79c0-.29-.06-.53-.18-.71-.12-.18-.37-.27-.74-.27s-.6,.1-.74,.3-.2,.41-.2,.62v.16h-1.16s-.01-.08-.01-.12v-.15c0-.58,.2-1.03,.6-1.35,.4-.32,.92-.48,1.55-.48,.7,0,1.22,.16,1.56,.49,.34,.33,.51,.79,.51,1.39v3.54c0,.16,.04,.27,.11,.34,.08,.07,.15,.1,.24,.1h.38v.83c-.07,.03-.16,.07-.28,.11-.12,.04-.27,.06-.46,.06-.28,0-.52-.08-.7-.22-.18-.15-.31-.35-.39-.6h-.06c-.17,.27-.38,.48-.65,.63s-.59,.23-.96,.23Zm.36-1.03c.22,0,.43-.06,.61-.18s.33-.3,.45-.54c.12-.24,.17-.52,.17-.84v-.53c-.4,0-.76,.03-1.07,.09-.31,.06-.56,.18-.74,.34-.18,.17-.27,.41-.27,.74s.07,.56,.22,.7c.15,.14,.36,.21,.63,.21Z"/><path class="cls-1" d="M290.02,72.47v-6.58h.92l.15,.78h.08c.17-.3,.4-.53,.67-.69,.28-.16,.59-.24,.94-.24,.49,0,.89,.15,1.2,.46s.46,.83,.46,1.57v4.7h-1.18v-4.51c0-.45-.08-.76-.25-.92-.17-.16-.39-.24-.66-.24-.31,0-.58,.15-.81,.45s-.35,.7-.35,1.2v4.03h-1.18Z"/><path class="cls-1" d="M296.54,74.75c-.19,0-.36-.01-.49-.03-.14-.02-.24-.04-.32-.07v-.85h.46c.26,0,.5-.1,.72-.29,.22-.2,.39-.54,.49-1.03l-2.08-6.58h1.28l1.08,3.66c.03,.11,.05,.23,.09,.35,.03,.12,.07,.25,.1,.38,.03,.13,.06,.25,.09,.35,.02,.1,.05,.19,.06,.26h.05c.02-.07,.04-.15,.06-.26,.02-.1,.04-.22,.07-.35,.03-.13,.05-.26,.08-.39,.03-.13,.06-.25,.09-.36l.89-3.65h1.19l-1.71,6.24c-.12,.48-.29,.91-.48,1.31-.2,.4-.43,.71-.71,.95-.28,.24-.61,.36-1,.36Z"/></g><g><g><circle class="cls-1" cx="141.77" cy="43.42" r="3.82"/><path class="cls-1" d="M183.47,34.53c-.61-2.88-3.45-4.73-6.33-4.11-2.27,.48-3.9,2.35-4.18,4.53l-13.15,2.79c-.95-1.78-2.16-3.41-3.58-4.83l4.81-4.33c1.93,1.05,4.4,.84,6.13-.72,2.19-1.97,2.37-5.35,.4-7.54-1.97-2.19-5.35-2.37-7.54-.4-1.73,1.56-2.2,3.98-1.35,6.02l-5.18,4.66c-1.5-1.05-3.14-1.91-4.9-2.53l5.65-17.4c2.2-.06,4.23-1.47,4.95-3.68,.91-2.8-.62-5.82-3.43-6.73s-5.82,.62-6.73,3.43c-.72,2.21,.09,4.55,1.84,5.89l-5.72,17.61c-1.11-.18-2.24-.29-3.4-.29-.53,0-1.05,.03-1.57,.07l-1.04-4.91c1.88-1.15,2.92-3.39,2.44-5.66-.61-2.88-3.45-4.73-6.33-4.11s-4.73,3.45-4.11,6.33c.48,2.27,2.35,3.9,4.53,4.18l1.01,4.74c-1.77,.45-3.44,1.14-4.99,2.01l-9.29-10.32c1.05-1.93,.84-4.4-.72-6.13-1.97-2.19-5.35-2.37-7.54-.4-2.19,1.97-2.37,5.35-.4,7.54,1.56,1.73,3.98,2.2,6.02,1.35l8.98,9.97c-1.58,1.31-2.96,2.85-4.09,4.57l-10.35-3.36c-.06-2.2-1.47-4.23-3.68-4.95-2.81-.91-5.82,.62-6.73,3.43-.91,2.8,.62,5.82,3.43,6.73,2.21,.72,4.55-.09,5.89-1.84l9.73,3.16c-1.01,2.36-1.59,4.95-1.64,7.67,0,.08,0,.15,0,.23,.04,.71,.49,1.31,1.13,1.55,.39-1.13,.88-2.21,1.45-3.23,3.5-6.28,10.2-10.53,17.9-10.53s14.4,4.25,17.9,10.52c.57,1.03,1.06,2.11,1.45,3.24,.62-.24,1.07-.82,1.13-1.51,0-.12,0-.23,0-.35-.04-2.05-.39-4.02-.99-5.87l12.47-2.65c1.15,1.88,3.39,2.92,5.66,2.44,2.88-.61,4.73-3.45,4.11-6.33Z"/></g><g><path class="cls-1" d="M17.41,65.74l7.45-18.61h9.56c-.4,1.2-.48,2.28-.48,3.44v18.73c0,1.16,.08,2.24,.48,3.44h-8.24c.4-1.2,.48-2.28,.48-3.44v-18.49h-.08l-8.77,21.93h-5.2L4,50.81h-.08v18.49c0,1.16,.08,2.24,.48,3.44H0c.4-1.2,.48-2.28,.48-3.44v-18.73c0-1.16-.08-2.24-.48-3.44H10.09l7.32,18.61Z"/><path class="cls-1" d="M44.43,65.06v3.36c0,1,.28,1.36,1.2,1.36h12.13c.6,0,1.36-.08,2.2-.24l-.56,3.2h-17.21c-3.2,0-4.72-1.56-4.72-5.04v-8.73c0-3.48,1.52-5.04,4.72-5.04h13.05c3.2,0,4.72,1.56,4.72,5.04v6.08h-15.53Zm8.56-2.96v-3.84c0-1-.28-1.36-1.2-1.36h-6.16c-.92,0-1.2,.36-1.2,1.36v3.84h8.56Z"/><path class="cls-1" d="M78.21,70.99h-.08c-.28,1-.96,1.76-2,1.76h-8.72c-3.2,0-4.72-1.56-4.72-5.04v-8.73c0-3.48,1.52-5.04,4.72-5.04h8.4c.56,0,1,.08,1.32,.4,.36,.28,.6,.76,.92,1.52h.16v-4.48c0-2.24-.16-3.36-.4-4.24h7.36v21.37c0,2.24,.16,3.36,.4,4.24h-6.97l-.4-1.76Zm-1.2-1.2c.92,0,1.2-.36,1.2-1.36v-10.17c0-1-.28-1.36-1.2-1.36h-6.16c-.92,0-1.2,.36-1.2,1.36v10.17c0,1,.28,1.36,1.2,1.36h6.16Z"/><path class="cls-1" d="M109.39,47.13l.64,3.88c-1.2-.52-2.85-.6-3.96-.6h-3.92v18.89c0,1.16,.08,2.24,.48,3.44h-8.48c.4-1.2,.48-2.28,.48-3.44v-18.89h-3.92c-1.12,0-2.76,.08-3.96,.6l.64-3.88h22.02Z"/><path class="cls-1" d="M119.08,55.34h.08c.32-.64,.72-1.4,2-1.4h8.49c3.2,0,4.72,1.56,4.72,5.04v9.53c0,2.24,.16,3.36,.4,4.24h-7.76c.24-.88,.4-2,.4-4.24v-10.25c0-1-.28-1.36-1.2-1.36h-5.92c-.92,0-1.2,.36-1.2,1.36v10.25c0,2.24,.16,3.36,.4,4.24h-7.76c.24-.88,.4-2,.4-4.24v-17.13c0-2.24-.16-3.36-.4-4.24h7.36v8.2Z"/><path class="cls-1" d="M145.62,53.93v14.57c0,2.24,.16,3.36,.4,4.24h-7.76c.24-.88,.4-2,.4-4.24v-10.33c0-2.24-.16-3.36-.4-4.24h7.37Z"/><path class="cls-1" d="M156.46,53.93l.16,1.92h.08c.48-1.48,1-1.92,2.16-1.92h8.57c3.2,0,4.72,1.56,4.72,5.04v9.53c0,2.24,.16,3.36,.4,4.24h-7.77c.24-.88,.4-2,.4-4.24v-10.25c0-1-.28-1.36-1.2-1.36h-5.93c-.92,0-1.2,.36-1.2,1.36v10.25c0,2.24,.16,3.36,.4,4.24h-7.77c.24-.88,.4-2,.4-4.24v-10.33c0-2.24-.16-3.36-.4-4.24h6.97Z"/><path class="cls-1" d="M198.13,53.93c-.6,.32-1.2,.72-7.09,4.96l6.12,11.09c.32,.6,1.28,1.88,2.12,2.76h-8.17l-5.4-9.72-2.76,2.08v3.4c0,2.24,.16,3.36,.4,4.24h-7.77c.24-.88,.4-2,.4-4.24v-17.13c0-2.24-.16-3.36-.4-4.24h7.36v14.21l8.13-6.2c.52-.4,.8-.72,.88-1.2h6.17Z"/></g></g></g></svg>