<svg xmlns="http://www.w3.org/2000/svg" width="58" height="58" viewBox="0 0 58 58">
  <g id="Group_62" data-name="Group 62" transform="translate(-707 -1225)">
    <g id="Ellipse_3" data-name="Ellipse 3" transform="translate(707 1225)" fill="none" stroke="#fff" stroke-width="6">
      <circle cx="29" cy="29" r="29" stroke="none"/>
      <circle cx="29" cy="29" r="26" fill="none"/>
    </g>
    <path id="Path_206" data-name="Path 206" d="M5.762-10.078v-1.68a7.372,7.372,0,0,1,.3-2.187A5.044,5.044,0,0,1,7.148-15.8a10.19,10.19,0,0,1,2.168-1.758,12.138,12.138,0,0,0,1.953-1.455,3.354,3.354,0,0,0,.82-1.133,2.939,2.939,0,0,0,.2-1.045,1.476,1.476,0,0,0-.742-1.3,3.516,3.516,0,0,0-1.934-.479,11.056,11.056,0,0,0-3.213.527,21.057,21.057,0,0,0-3.682,1.563L0-26.191a22.268,22.268,0,0,1,4.707-2.021,18.847,18.847,0,0,1,5.449-.752A10.712,10.712,0,0,1,17.031-27a6.306,6.306,0,0,1,2.441,5.166A8.008,8.008,0,0,1,19-19.043,7.27,7.27,0,0,1,17.52-16.66a13.621,13.621,0,0,1-2.676,2.188Q13.672-13.73,13-13.2a3.772,3.772,0,0,0-.957,1.016,2.178,2.178,0,0,0-.283,1.113v1Zm-.84,6.836a3.3,3.3,0,0,1,1.2-2.91,4.968,4.968,0,0,1,2.92-.84,4.833,4.833,0,0,1,2.842.84,3.3,3.3,0,0,1,1.2,2.91,3.3,3.3,0,0,1-1.2,2.852A4.681,4.681,0,0,1,9.043.488a4.809,4.809,0,0,1-2.92-.879A3.3,3.3,0,0,1,4.922-3.242Z" transform="translate(726 1268)" fill="#fff"/>
  </g>
</svg>
