<svg xmlns="http://www.w3.org/2000/svg" width="58.876" height="59.55" viewBox="0 0 58.876 59.55">
  <path id="Path_205" data-name="Path 205" d="M27.222,31.053V28.42l2.256-1.278,2.179,1.278v2.633l-2.179,1.278ZM22.183,0,19.1,5.64,17.671,3.157l-5.036,2.86,1.5,2.553L7.9,8.347l2.553,4.432,6.241.227,2.329,4.062-6.241-.224,2.633,4.435,6.167.227,3,5.113h-6.16l-3.387-5.49H9.848l3.387,5.49H8.574L5.19,21.2H0l3.461,5.416H.527V32.4H3.461L.154,37.744H5.263L8.574,32.4h4.662l-3.307,5.34h5.19l3.307-5.34h5.864l-3.007,5.34-6.471.227-2.626,4.512,6.464-.224-2.333,4.055-6.468.154L7.3,50.9l6.464-.15-1.428,2.483,4.963,2.933L18.8,53.61,21.656,59.1l2.556-4.439-2.857-5.49,2.333-4.058,2.857,5.563,2.633-4.512-2.933-5.49,3.007-5.113,3.007,5.263-3.007,5.713,2.556,4.515,3.084-5.717L37.224,49.4l-3.084,5.64,2.633,4.512,3-5.713,1.432,2.479,5.032-2.853L44.816,50.9l6.167.227-2.556-4.358-6.167-.3-2.333-3.985,6.167.224-2.556-4.512-6.244-.224-2.93-5.109h6.167l3.384,5.486H49.1l-3.384-5.486h4.589l3.461,5.486h5.109L55.5,32.862h2.857V27.069H55.5L58.8,21.8H53.69l-3.384,5.266H45.717L49.028,21.8H43.838l-3.307,5.266H34.587l3.084-5.34,6.394-.224L46.7,17.067l-6.471.15,2.336-3.985,6.464-.227L51.584,8.57,45.117,8.8l1.5-2.56L41.586,3.381,40.154,5.864,37.224.374,34.668,4.812,37.6,10.3,35.268,14.36,32.331,8.87l-2.626,4.439,2.93,5.563-2.93,5.113-3.084-5.34,3.084-5.71L27.069,8.493l-3.08,5.64-2.259-4.058,3.014-5.64Z" fill="#009cde"/>
</svg>
